# xmcd
#
# Track frame offsets:
#	150
#	17450
#	33500
#	48350
#	66463
#	78426
#	97739
#	113114
#	129189
#	147298
#	166271
#	179009
#	195212
#	208709
#	228726
#
# Disc length: 3282
#
# Revision: 3
# Processed by: cddbd v1.5.2PL0 Copyright (c) Steve Scherf et al.
# Submitted via: kJams Pro (development) 1.0patch44.18
#
DISCID=c40cd00f
DTITLE=Various Artist - SAVA 17
DYEAR=1900
DGENRE=various
TTITLE0=Brooks and Dunn - Rock My World
TTITLE1=Garth Brooks - American Honky Tonk Bar Association
TTITLE2=Wynonna - Only Love
TTITLE3=Dwight Yoakam - Fast As You
TTITLE4=Martina McBride - My Baby Loves Me
TTITLE5=Vince Gill - Whenever You Come Around
TTITLE6=Randy Travis - Before You Kill Us All
TTITLE7=Lorrie Morgan - I Don't Know My Own Strength
TTITLE8=Sawyer Brown - I Don't Believe In Goodbyes
TTITLE9=Randy Travis - No Place Like Home
TTITLE10=Tanya Tucker - Strong Enough To Bend
TTITLE11=Judds - Turn It Loose
TTITLE12=Collin Raye - My Kind Of Girl
TTITLE13=Toby Keith - Upstairs, Downtown
TTITLE14=Shania Twain - If You're Not In For Love (I'm Outta Here)
EXTD=
EXTT0=
EXTT1=
EXTT2=
EXTT3=
EXTT4=
EXTT5=
EXTT6=
EXTT7=
EXTT8=
EXTT9=
EXTT10=
EXTT11=
EXTT12=
EXTT13=
EXTT14=
PLAYORDER=
